<svg id="ignitis_logo" data-name="ignitis logo" xmlns="http://www.w3.org/2000/svg" width="137.551" height="40" viewBox="0 0 137.551 40">
  <path id="Union_25" data-name="Union 25" d="M8.1,33.767a.549.549,0,0,1-.046-.232A.561.561,0,0,1,8.4,33l3.52-1.366a.519.519,0,0,1,.675.28v.011a6.207,6.207,0,0,0,5.9,3.759,5.7,5.7,0,0,0,4.161-1.613,6.155,6.155,0,0,0,1.637-4.435V26.013l-.476.8a6.178,6.178,0,0,1-2.524,2.4,8.183,8.183,0,0,1-3.779.806,10.508,10.508,0,0,1-2.606-.327,10.078,10.078,0,0,1-4.227-2.335l-.09-.069q-2.923-2.648-2.918-7.58c0-3.327,1-5.906,3.043-7.762a10.624,10.624,0,0,1,2.548-1.754,10.377,10.377,0,0,1,4.577-1.013,7.979,7.979,0,0,1,3.63.745,5.262,5.262,0,0,1,2.293,2.23l.472.853V10.228a1.175,1.175,0,0,1,1.15-1.191h2.637a1.2,1.2,0,0,1,1.164,1.2l.011,19a10.074,10.074,0,0,1-3.214,7.936A11.643,11.643,0,0,1,18.154,40,10.57,10.57,0,0,1,8.1,33.767Zm9.313-20.3a5.1,5.1,0,0,0-3.225,1.576,6.613,6.613,0,0,0-1.58,4.635,6.358,6.358,0,0,0,1.624,4.587,4.943,4.943,0,0,0,1.423,1.006,5.935,5.935,0,0,0,2.534.548,6,6,0,0,0,4.231-1.671,6.337,6.337,0,0,0,1.789-4.555,6.144,6.144,0,0,0-1.779-4.529A5.993,5.993,0,0,0,18.2,13.417c-.053,0-.106,0-.159,0A4.555,4.555,0,0,0,17.41,13.464ZM89.292,28.886a9.82,9.82,0,0,1-3.665-2.51.682.682,0,0,1,.025-.9l2.263-2.4a.584.584,0,0,1,.451-.2.626.626,0,0,1,.484.222,8.032,8.032,0,0,0,6.328,2.778,5.135,5.135,0,0,0,2.434-.458,1.631,1.631,0,0,0,.914-1.493,1.62,1.62,0,0,0-.248-.933,2.5,2.5,0,0,0-1.342-.875,24.212,24.212,0,0,0-2.569-.621c-1.039-.221-1.637-.327-2.2-.479a16.852,16.852,0,0,1-2.053-.712A5.952,5.952,0,0,1,88.221,19.2a5.932,5.932,0,0,1-1.716-4.2A5.581,5.581,0,0,1,88.794,10.1,9.868,9.868,0,0,1,94.58,8.5a11.657,11.657,0,0,1,7.182,2.2.619.619,0,0,1,.26.523.667.667,0,0,1-.145.421l-1.83,2.314a.606.606,0,0,1-.853.1,7.257,7.257,0,0,0-4.4-1.471,4.317,4.317,0,0,0-2.549.643,1.99,1.99,0,0,0-.833,1.623V14.9a2.161,2.161,0,0,0,.484,1.086,3.275,3.275,0,0,0,1.59.9,24.612,24.612,0,0,0,2.456.552l.519.091a15.778,15.778,0,0,1,3.9,1.053,6.564,6.564,0,0,1,1.647.981,5.068,5.068,0,0,1,1.456,3.607,5.848,5.848,0,0,1-2.516,4.987,10.1,10.1,0,0,1-6.168,1.867A14.3,14.3,0,0,1,89.292,28.886Zm-23.77-.723a7.376,7.376,0,0,1-1.95-5.419V6.654a3.905,3.905,0,0,1,1.081-2.673L67.089,1.46a.858.858,0,0,1,1.47.628V9.048h4.5a1.011,1.011,0,0,1,.99,1.028v2.3a1.008,1.008,0,0,1-.99,1.024h-4.5v9.225a3.113,3.113,0,0,0,.853,2.335,2.955,2.955,0,0,0,2.144.781,5.036,5.036,0,0,0,2.276-.559.463.463,0,0,1,.214-.047.484.484,0,0,1,.42.258l1.3,2.474a.811.811,0,0,1,.067.247.534.534,0,0,1-.26.443A10,10,0,0,1,70.442,30,6.841,6.841,0,0,1,65.523,28.163ZM1.127,29.6A1.157,1.157,0,0,1,0,28.432V10.206a1.161,1.161,0,0,1,1.127-1.17H3.869a1.156,1.156,0,0,1,1.125,1.17V28.432A1.153,1.153,0,0,1,3.869,29.6Zm78.289-.011a1.423,1.423,0,0,1-1.4-1.449V10.5a1.426,1.426,0,0,1,1.4-1.46h2.174A1.442,1.442,0,0,1,83,10.5V28.138a1.439,1.439,0,0,1-1.41,1.449Zm-23.229,0a1.423,1.423,0,0,1-1.4-1.449V10.5a1.426,1.426,0,0,1,1.4-1.46h2.174a1.433,1.433,0,0,1,1.4,1.46V28.138a1.423,1.423,0,0,1-1.4,1.449Zm-8.978,0a.983.983,0,0,1-.957-.992V17.666a5.9,5.9,0,0,0-.958-3.632,3.436,3.436,0,0,0-2.864-1.26A4.182,4.182,0,0,0,38.913,14.5a7.317,7.317,0,0,0-1.206,4.355v9.364a1.334,1.334,0,0,1-1.31,1.355H34.041a1.333,1.333,0,0,1-1.309-1.355V10.228a1.177,1.177,0,0,1,1.153-1.191h2.637a1.177,1.177,0,0,1,1.149,1.191v2.056l.473-.737a6.585,6.585,0,0,1,5.933-3.033,6.819,6.819,0,0,1,5.132,2.078,8.308,8.308,0,0,1,2.028,5.837v11.8a1.333,1.333,0,0,1-1.309,1.355Zm31.948-24.1a1.128,1.128,0,0,1-1.108-1.144v-3.2A1.13,1.13,0,0,1,79.157,0h2.7a1.13,1.13,0,0,1,1.107,1.144v3.2a1.128,1.128,0,0,1-1.107,1.144Zm-23.229,0A1.113,1.113,0,0,1,54.82,4.344v-3.2A1.131,1.131,0,0,1,55.928,0h2.7A1.131,1.131,0,0,1,59.74,1.144v3.2a1.129,1.129,0,0,1-1.108,1.144Zm-54.778,0A1.128,1.128,0,0,1,.043,4.344v-3.2A1.13,1.13,0,0,1,1.15,0h2.7A1.129,1.129,0,0,1,4.96,1.144v3.2A1.127,1.127,0,0,1,3.854,5.488Z" transform="translate(34.084)" fill="#24345f"/>
  <path id="svg_3" d="M28.363,84.768a1.056,1.056,0,0,0-1.522,0L24.98,86.694a1.149,1.149,0,0,0,0,1.576l6.236,6.457a1.056,1.056,0,0,0,1.522,0L34.6,92.8a1.149,1.149,0,0,0,0-1.576Z" transform="translate(-24.667 -78.556)" fill="#00d3b7"/>
  <path id="svg_4" d="M166.937,84.768a1.056,1.056,0,0,0-1.522,0l-6.235,6.457a1.149,1.149,0,0,0,0,1.576l1.86,1.927a1.056,1.056,0,0,0,1.522,0L168.8,88.27a1.149,1.149,0,0,0,0-1.576Z" transform="translate(-146.091 -78.556)" fill="#00dadc"/>
  <path id="svg_5" d="M32.738,217.19a1.056,1.056,0,0,0-1.522,0l-6.236,6.457a1.149,1.149,0,0,0,0,1.576l1.86,1.927a1.056,1.056,0,0,0,1.522,0l6.236-6.457a1.149,1.149,0,0,0,0-1.576Z" transform="translate(-24.667 -197.925)" fill="#928df2"/>
  <path id="svg_6" d="M162.444,217.19a1.056,1.056,0,0,0-1.522,0l-1.86,1.926a1.149,1.149,0,0,0,0,1.576l6.236,6.457a1.056,1.056,0,0,0,1.522,0l1.861-1.927a1.149,1.149,0,0,0,0-1.576Z" transform="translate(-145.984 -197.925)" fill="#4057e3"/>
  <path id="svg_7" d="M120.853,30.216h2.706a1.127,1.127,0,0,0,1.105-1.144V25.861a1.127,1.127,0,0,0-1.105-1.144h-2.706a1.127,1.127,0,0,0-1.105,1.144v3.2A1.123,1.123,0,0,0,120.853,30.216Z" transform="translate(-110.696 -24.717)" fill="#24345f"/>
</svg>
