<svg id="icons8-linkedin" xmlns="http://www.w3.org/2000/svg" width="22.302" height="22.302" viewBox="0 0 22.302 22.302">
  <path id="Path_3964" data-name="Path 3964" d="M28.3,25.2a3.1,3.1,0,0,1-3.1,3.1H9.1A3.1,3.1,0,0,1,6,25.2V9.1A3.1,3.1,0,0,1,9.1,6H25.2a3.1,3.1,0,0,1,3.1,3.1Z" transform="translate(-6 -6)" fill="#b6bccb"/>
  <path id="Path_3965" data-name="Path 3965" d="M12,16.337h3.1V26.868H12ZM13.539,15.1h-.017a1.567,1.567,0,1,1,.017,0ZM26.868,26.868h-3.1V21.231a2.021,2.021,0,0,0-1.977-2.291,1.776,1.776,0,0,0-1.677,1.233,4.468,4.468,0,0,0-.063,1.119v5.576h-3.1V16.337h3.1v1.621a3.133,3.133,0,0,1,2.935-1.621c2.217,0,3.879,1.394,3.879,4.506v6.025Z" transform="translate(-8.283 -8.283)" fill="#fff"/>
</svg>
