<svg id="icons8-youtube" xmlns="http://www.w3.org/2000/svg" width="24.842" height="18.585" viewBox="0 0 24.842 18.585">
  <path id="Path_3962" data-name="Path 3962" d="M28.284,24.426a3.093,3.093,0,0,1-2.6,2.478,64.475,64.475,0,0,1-9.293.681A66.01,66.01,0,0,1,7.1,26.9a3.093,3.093,0,0,1-2.6-2.478A36.259,36.259,0,0,1,4,18.293a36.259,36.259,0,0,1,.5-6.133A3.093,3.093,0,0,1,7.1,9.681,64.475,64.475,0,0,1,16.39,9a65.236,65.236,0,0,1,9.293.681,3.093,3.093,0,0,1,2.6,2.478,35.144,35.144,0,0,1,.558,6.133A42.544,42.544,0,0,1,28.284,24.426Z" transform="translate(-4 -9)" fill="#b6bccb"/>
  <path id="Path_3963" data-name="Path 3963" d="M20,25.673V17l7.434,4.337Z" transform="translate(-10.088 -12.044)" fill="#fff"/>
</svg>
