<svg id="icons8-facebook" xmlns="http://www.w3.org/2000/svg" width="23.541" height="23.541" viewBox="0 0 23.541 23.541">
  <path id="Path_3114" data-name="Path 3114" d="M16.771,5A11.771,11.771,0,1,0,28.541,16.771,11.771,11.771,0,0,0,16.771,5Z" transform="translate(-5 -5)" fill="#b6bccb"/>
  <path id="Path_3115" data-name="Path 3115" d="M22.723,22.859h3.046l.478-3.094H22.723V18.073c0-1.285.42-2.425,1.622-2.425h1.932v-2.7a16.413,16.413,0,0,0-2.414-.146c-2.833,0-4.494,1.5-4.494,4.9v2.059H16.457v3.094h2.912v8.505a10.673,10.673,0,0,0,3.354.025Z" transform="translate(-9.359 -7.968)" fill="#fff"/>
</svg>
